<?xml version="1.0" encoding="UTF-8"?>
<svg version="1.1" xmlns="http://www.w3.org/2000/svg" width="500" height="500">
<path d="M0 0 C0.99 0.33 1.98 0.66 3 1 C0.97495353 9.30564309 -1.23207342 17.54417994 -3.57421875 25.765625 C-3.90291458 26.92503601 -4.23161041 28.08444702 -4.57026672 29.2789917 C-5.60760376 32.93649114 -6.64750615 36.59325523 -7.6875 40.25 C-8.39665503 42.74864949 -9.10564097 45.24734697 -9.81445312 47.74609375 C-11.54101621 53.83128488 -13.26967895 59.91587644 -15 66 C-10.66466844 65.60400069 -6.34787926 65.12787955 -2.0300293 64.57788086 C-0.56308458 64.40232555 0.90661335 64.24830633 2.37817383 64.11694336 C7.25287759 63.67288806 11.5344826 63.07862739 16 61 C18.15805166 57.6225767 19.15317666 54.71605988 20.0715332 50.82495117 C20.37792725 49.89271729 20.68432129 48.9604834 21 48 C23.11010742 47.1027832 23.11010742 47.1027832 25 47 C24.69024532 48.77131561 24.37709575 50.54203778 24.0625 52.3125 C23.88847656 53.29863281 23.71445312 54.28476563 23.53515625 55.30078125 C23 58 23 58 22 61 C22.66 60.67 23.32 60.34 24 60 C26.54615009 59.76827173 29.07396225 59.58105471 31.625 59.4375 C32.33140625 59.39431641 33.0378125 59.35113281 33.765625 59.30664062 C35.51018537 59.20055249 37.25506697 59.09977111 39 59 C38.67 59.99 38.34 60.98 38 62 C29.585 62.495 29.585 62.495 21 63 C20.34 67.29 19.68 71.58 19 76 C21.40785992 72.7895201 22.68197635 70.64991166 24 67 C25.45635371 66.77825067 26.91522956 66.57301302 28.375 66.375 C29.18710937 66.25898438 29.99921875 66.14296875 30.8359375 66.0234375 C31.55007813 66.01570313 32.26421875 66.00796875 33 66 C33.66 66.66 34.32 67.32 35 68 C35.721875 67.484375 36.44375 66.96875 37.1875 66.4375 C40.4195366 64.78557018 41.61608307 64.93648325 45 66 C45 66.66 45 67.32 45 68 C45.99 68 46.98 68 48 68 C48.33 66.35 48.66 64.7 49 63 C49.99 63.33 50.98 63.66 52 64 C52 65.65 52 67.3 52 69 C52.598125 68.01 53.19625 67.02 53.8125 66 C54.534375 65.01 55.25625 64.02 56 63 C56.99 63 57.98 63 59 63 C59.33 64.65 59.66 66.3 60 68 C61.98 64.37 63.96 60.74 66 57 C66.99 57 67.98 57 69 57 C68.39916639 61.07231667 67.06294995 64.10234153 65.0625 67.6875 C64.53785156 68.64011719 64.01320313 69.59273438 63.47265625 70.57421875 C62 73 62 73 60 75 C58 74.66666667 56 74.33333333 54 74 C53.34 74.66 52.68 75.32 52 76 C51.278125 75.814375 50.55625 75.62875 49.8125 75.4375 C46.80892492 74.71557984 46.80892492 74.71557984 43.5 76.5 C40 78 40 78 37.1875 78 C35 77 35 77 33.6875 74.4375 C33.460625 73.633125 33.23375 72.82875 33 72 C32.34 72 31.68 72 31 72 C31 71.34 31 70.68 31 70 C28.35359937 72.50335194 26.23574263 74.51779917 24.625 77.8125 C24.08875 78.534375 23.5525 79.25625 23 80 C19.4375 80.5 19.4375 80.5 16 80 C15.34 79.01 14.68 78.02 14 77 C13.46375 77.804375 12.9275 78.60875 12.375 79.4375 C9.55190755 82.48346817 8.07958555 82.82262672 4 83 C3.34 82.67 2.68 82.34 2 82 C1.071875 82.495 1.071875 82.495 0.125 83 C-2 84 -2 84 -4.1875 83.8125 C-4.785625 83.544375 -5.38375 83.27625 -6 83 C-6.33 82.01 -6.66 81.02 -7 80 C-7.40992188 80.433125 -7.81984375 80.86625 -8.2421875 81.3125 C-8.78101563 81.869375 -9.31984375 82.42625 -9.875 83 C-10.40867187 83.556875 -10.94234375 84.11375 -11.4921875 84.6875 C-13 86 -13 86 -15 86 C-14.50769231 78.61538462 -14.50769231 78.61538462 -11.9375 75.5 C-11.298125 75.005 -10.65875 74.51 -10 74 C-9.34 74.33 -8.68 74.66 -8 75 C-5.99199544 74.71887936 -3.98985949 74.38932033 -2 74 C-1.67 75.65 -1.34 77.3 -1 79 C1.21863816 76.86059892 3.08257575 74.8775601 4.8125 72.3125 C7.70149864 69.25841572 9.89851341 69.23662423 14 69 C14.33 67.35 14.66 65.7 15 64 C13.75347656 64.28617187 12.50695312 64.57234375 11.22265625 64.8671875 C5.654136 66.10463645 0.05217118 67.1217166 -5.5625 68.125 C-6.57119141 68.30675781 -7.57988281 68.48851562 -8.61914062 68.67578125 C-11.07913957 69.11881423 -13.53942346 69.56018835 -16 70 C-20.89010057 86.39277611 -20.89010057 86.39277611 -20 103 C-21.65 102.67 -23.3 102.34 -25 102 C-25.62893546 90.97615901 -23.86737699 81.57345264 -21 71 C-25.67505703 71.69337896 -25.67505703 71.69337896 -29.27636719 74.47167969 C-30.41103442 76.40113687 -31.40627739 78.35713778 -32.375 80.375 C-33.13655419 81.83683015 -33.90488707 83.29514727 -34.6796875 84.75 C-35.25541504 85.8328125 -35.25541504 85.8328125 -35.84277344 86.9375 C-45.16640822 103.55481364 -60.14651088 119.42043022 -78.30859375 125.8125 C-89.52739555 128.77673387 -101.33744208 127.75525992 -111.4375 122.0625 C-115.1357787 119.08583665 -116.6693693 117.34795591 -117.8125 112.6875 C-118.0163693 108.67807044 -117.10305622 105.82392823 -116 102 C-116.66 101.01 -117.32 100.02 -118 99 C-122.58466846 101.20416753 -124.48756253 102.58118875 -126.25 107.4609375 C-126.94851557 110.06546748 -127.51336105 112.66858868 -128.078125 115.30859375 C-129.63620263 121.54750629 -131.68968762 125.32362989 -137 129 C-139.32595946 130.16297973 -140.78723231 130.16600691 -143.375 130.1875 C-144.14585937 130.20167969 -144.91671875 130.21585938 -145.7109375 130.23046875 C-148.21834888 129.97801607 -149.83261902 129.25193467 -152 128 C-151.90759302 123.47205796 -151.37041578 120.92379864 -148.1875 117.625 C-143.14681764 112.9955867 -137.53647213 109.00916948 -132 105 C-134.3015411 104.22197813 -134.3015411 104.22197813 -137 104 C-138.34141908 104.9891272 -139.67422294 105.99000349 -141 107 C-143.91015625 107.29296875 -143.91015625 107.29296875 -147.0625 107.1875 C-148.10535156 107.16042969 -149.14820313 107.13335937 -150.22265625 107.10546875 C-151.13917969 107.07066406 -152.05570313 107.03585937 -153 107 C-156.15047518 106.67702888 -156.15047518 106.67702888 -158.4375 109.0625 C-161 111 -161 111 -163.1875 110.75 C-164.0846875 110.37875 -164.0846875 110.37875 -165 110 C-168.04200046 110 -170.99532806 110.55486342 -174 111 C-174.33 109.68 -174.66 108.36 -175 107 C-175.7425 107.99 -176.485 108.98 -177.25 110 C-178.515625 111.6875 -178.515625 111.6875 -180 113 C-181.32 113 -182.64 113 -184 113 C-183.57781184 111.3501725 -183.13675575 109.70516335 -182.6875 108.0625 C-182.44386719 107.14597656 -182.20023438 106.22945313 -181.94921875 105.28515625 C-181.47935547 104.15400391 -181.47935547 104.15400391 -181 103 C-177.65788261 101.88596087 -174.49734228 101.38859359 -171 101 C-170 102 -170 102 -169.9375 104.5625 C-169.958125 105.366875 -169.97875 106.17125 -170 107 C-169.278125 106.278125 -168.55625 105.55625 -167.8125 104.8125 C-166.884375 103.884375 -165.95625 102.95625 -165 102 C-163.7625 100.63875 -163.7625 100.63875 -162.5 99.25 C-160 97 -160 97 -157.48364258 96.65258789 C-154.83988069 96.25829081 -154.83988069 96.25829081 -153.69799805 93.95874023 C-153.38902588 93.08419189 -153.08005371 92.20964355 -152.76171875 91.30859375 C-152.41689453 90.36435547 -152.07207031 89.42011719 -151.71679688 88.44726562 C-151.20729492 86.95743164 -151.20729492 86.95743164 -150.6875 85.4375 C-150.32849609 84.44041016 -149.96949219 83.44332031 -149.59960938 82.41601562 C-148.71464181 79.949906 -147.84920195 77.47860622 -147 75 C-145.68 75 -144.36 75 -143 75 C-143.26554687 76.09957031 -143.53109375 77.19914062 -143.8046875 78.33203125 C-145.7663522 86.5207762 -147.63524974 94.68579778 -149 103 C-146.70886268 100.8092961 -145.3024333 98.90542812 -144 96 C-143.01 96.33 -142.02 96.66 -141 97 C-141.33 98.98 -141.66 100.96 -142 103 C-139.22190188 100.37624066 -137.11175119 98.21108558 -135.3125 94.8125 C-131.92834946 90.69664124 -128.12045813 90.56676827 -123 90 C-123 92.64 -123 95.28 -123 98 C-122.21625 97.505 -121.4325 97.01 -120.625 96.5 C-118 95 -118 95 -116 95 C-115.835 94.360625 -115.67 93.72125 -115.5 93.0625 C-114 91 -114 91 -112.15625 90.44140625 C-110.04460329 90.13154505 -108.13240826 89.86672448 -106 90 C-105.34 90.66 -104.68 91.32 -104 92 C-102.99582031 91.48050781 -101.99164063 90.96101563 -100.95703125 90.42578125 C-99.57569291 89.72101679 -98.19417238 89.01660935 -96.8125 88.3125 C-96.15830078 87.97283203 -95.50410156 87.63316406 -94.83007812 87.28320312 C-84.20582725 81.89554984 -73.1564362 78.26180277 -61.625 75.375 C-60.45122803 75.07360107 -59.27745605 74.77220215 -58.06811523 74.46166992 C-50.66167343 72.58485269 -43.2748395 70.95789938 -35.72265625 69.80078125 C-31.59950813 68.58809063 -29.66671975 66.16424651 -27.55883789 62.48339844 C-27.11789795 61.5349707 -26.67695801 60.58654297 -26.22265625 59.609375 C-25.71524902 58.52213135 -25.2078418 57.4348877 -24.68505859 56.31469727 C-24.14961426 55.13834717 -23.61416992 53.96199707 -23.0625 52.75 C-22.64571991 51.84542557 -22.64571991 51.84542557 -22.22052002 50.9225769 C-16.83868776 39.23873344 -11.95553475 27.36057545 -7.22680664 15.39941406 C-6.96542404 14.74180588 -6.70404144 14.08419769 -6.43473816 13.40666199 C-5.72826689 11.62632812 -5.02773101 9.84364219 -4.32763672 8.06079102 C-3.08559602 5.19733677 -1.67384724 2.62976184 0 0 Z M-14 42 C-15.83944626 45.95552103 -17.67051553 49.91486285 -19.5 53.875 C-20.02464844 55.00292969 -20.54929687 56.13085938 -21.08984375 57.29296875 C-21.58613281 58.36933594 -22.08242188 59.44570312 -22.59375 60.5546875 C-23.28500977 62.04718018 -23.28500977 62.04718018 -23.99023438 63.56982422 C-25.12790205 65.86921644 -25.12790205 65.86921644 -25 68 C-22.57732914 68.05167527 -22.57732914 68.05167527 -20 67 C-17.63649352 62.24276317 -16.10525981 57.37329275 -14.75 52.25 C-14.564375 51.59128906 -14.37875 50.93257812 -14.1875 50.25390625 C-13.30451764 46.95610093 -12.8968079 45.30957631 -14 42 Z M8.4375 73.1875 C6.67318459 75.4120716 6.37596209 77.21788056 6 80 C9.78034623 76.52263974 9.78034623 76.52263974 12 72 C9.93829743 71.79830558 9.93829743 71.79830558 8.4375 73.1875 Z M39.875 71.9375 C38.451875 72.4634375 38.451875 72.4634375 37 73 C37.33 73.66 37.66 74.32 38 75 C41.93075644 74.42547254 41.93075644 74.42547254 45 72 C42.87060172 70.64973223 42.87060172 70.64973223 39.875 71.9375 Z M-75.25 82.375 C-96.46460516 89.51711806 -96.46460516 89.51711806 -112.5 104.4375 C-114.30944187 108.73492444 -114.52328242 110.59049825 -113 115 C-109.17028928 119.69909907 -103.95534546 122.86876483 -98 124 C-83.64984075 125.31340441 -73.05643014 122.14544221 -62 113 C-49.17000274 101.64471507 -40.51992564 87.69378479 -32 73 C-41.39900233 68.30049884 -65.66025119 79.21861429 -75.25 82.375 Z M-111 93 C-112.71711243 95.44496043 -112.71711243 95.44496043 -114 98 C-113.01 98.495 -113.01 98.495 -112 99 C-109.7522025 96.94766315 -108.9977758 95.99332739 -108 93 C-108.99 93 -109.98 93 -111 93 Z M-130 94 C-132.29648649 96.5614657 -133 97.47967572 -133 101 C-129.72226496 100.24849977 -129.72226496 100.24849977 -128 97 C-128 96.01 -128 95.02 -128 94 C-128.66 94 -129.32 94 -130 94 Z M-158 99 C-160.26212435 101.26513223 -160.26212435 101.26513223 -162 104 C-161.67 104.99 -161.34 105.98 -161 107 C-158.74754119 104.31158141 -157.11786042 102.35358125 -156 99 C-156.66 99 -157.32 99 -158 99 Z M-131 107 C-133.45941231 109.12375386 -135.91734242 111.24921589 -138.375 113.375 C-139.07367188 113.97828125 -139.77234375 114.5815625 -140.4921875 115.203125 C-141.1625 115.78320312 -141.8328125 116.36328125 -142.5234375 116.9609375 C-143.14138184 117.49509277 -143.75932617 118.02924805 -144.39599609 118.57958984 C-145.6359416 119.6776116 -146.82886452 120.82886452 -148 122 C-148 123.32 -148 124.64 -148 126 C-145.09704195 127.45147903 -143.22738221 127.37239025 -140 127 C-133.96255675 123.61903178 -132.61243559 119.17715038 -130.56640625 112.7421875 C-129.74581087 109.92657966 -129.74581087 109.92657966 -131 107 Z " fill="#505050" transform="translate(338,183)"/>
<path d="M0 0 C6.30129206 5.35394519 9.1379464 12.59811834 9.93408203 20.68359375 C11.22749572 46.14057274 3.68395875 73.68282132 -13.66015625 92.89453125 C-21.55918915 101.25300047 -30.0906256 107.75835871 -41.85546875 108.65234375 C-47.69494258 108.49162429 -51.47533377 106.7845446 -55.58984375 102.63671875 C-62.70076441 93.49410647 -62.4992561 81.49946198 -61.28515625 70.45703125 C-59.95518937 62.54543338 -58.36676898 54.17720996 -55.1171875 46.80859375 C-53.95799892 43.53238941 -54.20886994 40.66601305 -54.34765625 37.20703125 C-54.5583064 25.21014207 -50.78227873 18.52202562 -42.765625 9.8046875 C-32.55163878 0.05614876 -13.23760397 -7.9201732 0 0 Z M-43.7734375 17.33984375 C-46.2085342 20.75023758 -48.24279096 24.3795435 -49.28515625 28.45703125 C-48.94923344 30.66044471 -48.94923344 30.66044471 -48.28515625 32.45703125 C-47.81207031 31.56242187 -47.33898437 30.6678125 -46.8515625 29.74609375 C-36.20250701 10.09614817 -36.20250701 10.09614817 -28.28515625 7.45703125 C-30.02970667 10.63827025 -32.01651354 13.32754423 -34.34765625 16.08203125 C-38.09265445 20.82569564 -40.93770187 25.95902132 -43.78515625 31.26953125 C-44.242854 32.10629395 -44.70055176 32.94305664 -45.17211914 33.80517578 C-45.59098389 34.6042334 -46.00984863 35.40329102 -46.44140625 36.2265625 C-46.82103516 36.94432861 -47.20066406 37.66209473 -47.59179688 38.40161133 C-48.42994629 40.88625214 -48.19403103 42.02679272 -47.28515625 44.45703125 C-44.64085428 48.97438045 -41.61942352 50.72999785 -36.7265625 52.140625 C-32.41005363 52.70004455 -29.02463858 51.59180368 -25.28515625 49.45703125 C-21.41584436 46.23731187 -19.44776885 42.31886577 -18.28515625 37.45703125 C-18.28515625 36.13703125 -18.28515625 34.81703125 -18.28515625 33.45703125 C-17.29515625 33.78703125 -16.30515625 34.11703125 -15.28515625 34.45703125 C-16.18234864 41.23284246 -17.14437522 45.77320853 -22.28515625 50.45703125 C-28.27665604 54.12529643 -34.38137403 54.18677735 -41.28515625 53.45703125 C-44.78515625 52.08203125 -44.78515625 52.08203125 -47.28515625 50.45703125 C-48.61266782 49.77884599 -49.94507861 49.11003519 -51.28515625 48.45703125 C-56.19438497 63.44686069 -61.55145071 81.30316065 -54.28515625 96.45703125 C-51.59500638 100.5035592 -48.87929875 103.65063874 -44.28515625 105.45703125 C-35.22059359 106.30352737 -27.97108481 100.76381667 -21.22265625 95.39453125 C-3.76121787 79.34127339 4.19646427 53.97130718 5.8984375 30.9765625 C6.18147638 21.56968217 4.60206348 12.02407101 -1.28515625 4.45703125 C-4.91484615 0.95054232 -8.64334199 0.18762698 -13.59765625 -0.04296875 C-26.18481703 0.49082329 -35.92929558 7.94150122 -43.7734375 17.33984375 Z " fill="#373737" transform="translate(146.28515625,224.54296875)"/>
<path d="M0 0 C0.99 0.33 1.98 0.66 3 1 C0.97495353 9.30564309 -1.23207342 17.54417994 -3.57421875 25.765625 C-3.90291458 26.92503601 -4.23161041 28.08444702 -4.57026672 29.2789917 C-5.60760376 32.93649114 -6.64750615 36.59325523 -7.6875 40.25 C-8.39665503 42.74864949 -9.10564097 45.24734697 -9.81445312 47.74609375 C-11.54101621 53.83128488 -13.26967895 59.91587644 -15 66 C-10.66466844 65.60400069 -6.34787926 65.12787955 -2.0300293 64.57788086 C-0.56308458 64.40232555 0.90661335 64.24830633 2.37817383 64.11694336 C7.25287759 63.67288806 11.5344826 63.07862739 16 61 C18.15805166 57.6225767 19.15317666 54.71605988 20.0715332 50.82495117 C20.37792725 49.89271729 20.68432129 48.9604834 21 48 C23.11010742 47.1027832 23.11010742 47.1027832 25 47 C24.69024532 48.77131561 24.37709575 50.54203778 24.0625 52.3125 C23.88847656 53.29863281 23.71445312 54.28476563 23.53515625 55.30078125 C23 58 23 58 22 61 C22.66 60.67 23.32 60.34 24 60 C26.54615009 59.76827173 29.07396225 59.58105471 31.625 59.4375 C32.33140625 59.39431641 33.0378125 59.35113281 33.765625 59.30664062 C35.51018537 59.20055249 37.25506697 59.09977111 39 59 C38.67 59.99 38.34 60.98 38 62 C29.585 62.495 29.585 62.495 21 63 C20.34 67.29 19.68 71.58 19 76 C21.40785992 72.7895201 22.68197635 70.64991166 24 67 C25.45635371 66.77825067 26.91522956 66.57301302 28.375 66.375 C29.18710937 66.25898438 29.99921875 66.14296875 30.8359375 66.0234375 C31.55007813 66.01570313 32.26421875 66.00796875 33 66 C33.99 66.99 33.99 66.99 35 68 C35.721875 67.484375 36.44375 66.96875 37.1875 66.4375 C40.4195366 64.78557018 41.61608307 64.93648325 45 66 C45 66.66 45 67.32 45 68 C45.99 68 46.98 68 48 68 C48.33 66.35 48.66 64.7 49 63 C50.485 63.495 50.485 63.495 52 64 C52 65.65 52 67.3 52 69 C52.598125 68.01 53.19625 67.02 53.8125 66 C54.534375 65.01 55.25625 64.02 56 63 C56.99 63 57.98 63 59 63 C59.33 64.65 59.66 66.3 60 68 C61.98 64.37 63.96 60.74 66 57 C66.99 57 67.98 57 69 57 C68.39916639 61.07231667 67.06294995 64.10234153 65.0625 67.6875 C64.53785156 68.64011719 64.01320313 69.59273438 63.47265625 70.57421875 C62 73 62 73 60 75 C58 74.66666667 56 74.33333333 54 74 C53.34 74.66 52.68 75.32 52 76 C50.9171875 75.7215625 50.9171875 75.7215625 49.8125 75.4375 C46.80892492 74.71557984 46.80892492 74.71557984 43.5 76.5 C40 78 40 78 37.1875 78 C35 77 35 77 33.6875 74.4375 C33.460625 73.633125 33.23375 72.82875 33 72 C32.34 72 31.68 72 31 72 C31 71.34 31 70.68 31 70 C28.35359937 72.50335194 26.23574263 74.51779917 24.625 77.8125 C24.08875 78.534375 23.5525 79.25625 23 80 C19.4375 80.5 19.4375 80.5 16 80 C15.34 79.01 14.68 78.02 14 77 C13.46375 77.804375 12.9275 78.60875 12.375 79.4375 C9.55190755 82.48346817 8.07958555 82.82262672 4 83 C3.34 82.67 2.68 82.34 2 82 C1.071875 82.495 1.071875 82.495 0.125 83 C-2 84 -2 84 -4.1875 83.8125 C-4.785625 83.544375 -5.38375 83.27625 -6 83 C-6.33 82.01 -6.66 81.02 -7 80 C-7.40992188 80.433125 -7.81984375 80.86625 -8.2421875 81.3125 C-8.78101563 81.869375 -9.31984375 82.42625 -9.875 83 C-10.40867187 83.556875 -10.94234375 84.11375 -11.4921875 84.6875 C-13 86 -13 86 -15 86 C-14.50769231 78.61538462 -14.50769231 78.61538462 -11.9375 75.5 C-11.298125 75.005 -10.65875 74.51 -10 74 C-9.34 74.33 -8.68 74.66 -8 75 C-5.99199544 74.71887936 -3.98985949 74.38932033 -2 74 C-1.67 75.65 -1.34 77.3 -1 79 C1.21863816 76.86059892 3.08257575 74.8775601 4.8125 72.3125 C7.70149864 69.25841572 9.89851341 69.23662423 14 69 C14.33 67.35 14.66 65.7 15 64 C13.75347656 64.28617187 12.50695312 64.57234375 11.22265625 64.8671875 C5.654136 66.10463645 0.05217118 67.1217166 -5.5625 68.125 C-6.57119141 68.30675781 -7.57988281 68.48851562 -8.61914062 68.67578125 C-11.07913957 69.11881423 -13.53942346 69.56018835 -16 70 C-20.89010057 86.39277611 -20.89010057 86.39277611 -20 103 C-21.65 102.67 -23.3 102.34 -25 102 C-25.61665369 91.1914312 -24.94843831 78.89687662 -20 69 C-20.66 69 -21.32 69 -22 69 C-22 68.34 -22 67.68 -22 67 C-21.01 66.505 -21.01 66.505 -20 66 C-19.05807873 63.58872723 -19.05807873 63.58872723 -18.2734375 60.65234375 C-17.9640625 59.57275391 -17.6546875 58.49316406 -17.3359375 57.38085938 C-17.01882813 56.24455078 -16.70171875 55.10824219 -16.375 53.9375 C-16.05015625 52.79732422 -15.7253125 51.65714844 -15.390625 50.48242188 C-14.58670077 47.65686466 -13.79018009 44.82942584 -13 42 C-13.99 41.67 -14.98 41.34 -16 41 C-15.55729961 33.74814607 -12.5055448 27.58832297 -9.625 21 C-8.8825 19.27523437 -8.8825 19.27523437 -8.125 17.515625 C-7.17381913 15.30807155 -6.21861891 13.10224419 -5.25878906 10.8984375 C-4.22665972 8.52189764 -3.21401497 6.13886008 -2.2109375 3.75 C-1 1 -1 1 0 0 Z M8.4375 73.1875 C6.67318459 75.4120716 6.37596209 77.21788056 6 80 C9.78034623 76.52263974 9.78034623 76.52263974 12 72 C9.93829743 71.79830558 9.93829743 71.79830558 8.4375 73.1875 Z M39.875 71.9375 C38.451875 72.4634375 38.451875 72.4634375 37 73 C37.33 73.66 37.66 74.32 38 75 C41.93075644 74.42547254 41.93075644 74.42547254 45 72 C42.87060172 70.64973223 42.87060172 70.64973223 39.875 71.9375 Z " fill="#373737" transform="translate(338,183)"/>
<path d="M0 0 C0.99 0.33 1.98 0.66 3 1 C2.73445313 2.09957031 2.46890625 3.19914062 2.1953125 4.33203125 C0.2336478 12.5207762 -1.63524974 20.68579778 -3 29 C-0.70886268 26.8092961 0.6975667 24.90542812 2 22 C2.99 22.33 3.98 22.66 5 23 C4.67 24.98 4.34 26.96 4 29 C6.77809812 26.37624066 8.88824881 24.21108558 10.6875 20.8125 C14.07165054 16.69664124 17.87954187 16.56676827 23 16 C23 18.64 23 21.28 23 24 C23.99 23.34 24.98 22.68 26 22 C27.9896995 21.60986284 29.99019869 21.26797351 32 21 C32 22.32 32 23.64 32 25 C33.65 25 35.3 25 37 25 C36.34 26.65 35.68 28.3 35 30 C34.505 29.01 34.505 29.01 34 28 C30.63142283 26.43999066 30.63142283 26.43999066 27 26 C23.01838869 28.05065994 21.30051556 29.23268939 19.64453125 33.4609375 C19.34335612 34.76033065 19.06639961 36.0655482 18.8125 37.375 C17.14097116 44.99228666 15.6003091 50.43055524 9 55 C6.67404054 56.16297973 5.21276769 56.16600691 2.625 56.1875 C1.85414063 56.20167969 1.08328125 56.21585937 0.2890625 56.23046875 C-2.21834888 55.97801607 -3.83261902 55.25193467 -6 54 C-5.90759302 49.47205796 -5.37041578 46.92379864 -2.1875 43.625 C2.85318236 38.9955867 8.46352787 35.00916948 14 31 C11.6984589 30.22197813 11.6984589 30.22197813 9 30 C7.65858092 30.9891272 6.32577706 31.99000349 5 33 C2.08984375 33.29296875 2.08984375 33.29296875 -1.0625 33.1875 C-2.10535156 33.16042969 -3.14820313 33.13335937 -4.22265625 33.10546875 C-5.13917969 33.07066406 -6.05570313 33.03585937 -7 33 C-10.15047518 32.67702888 -10.15047518 32.67702888 -12.4375 35.0625 C-15 37 -15 37 -17.1875 36.75 C-17.785625 36.5025 -18.38375 36.255 -19 36 C-22.04200046 36 -24.99532806 36.55486342 -28 37 C-28.33 35.68 -28.66 34.36 -29 33 C-29.7425 33.99 -30.485 34.98 -31.25 36 C-32.515625 37.6875 -32.515625 37.6875 -34 39 C-35.32 39 -36.64 39 -38 39 C-37.57781184 37.3501725 -37.13675575 35.70516335 -36.6875 34.0625 C-36.44386719 33.14597656 -36.20023438 32.22945313 -35.94921875 31.28515625 C-35.47935547 30.15400391 -35.47935547 30.15400391 -35 29 C-31.65788261 27.88596087 -28.49734228 27.38859359 -25 27 C-24 28 -24 28 -23.9375 30.5625 C-23.958125 31.366875 -23.97875 32.17125 -24 33 C-23.278125 32.278125 -22.55625 31.55625 -21.8125 30.8125 C-20.884375 29.884375 -19.95625 28.95625 -19 28 C-18.175 27.0925 -17.35 26.185 -16.5 25.25 C-14 23 -14 23 -11.48144531 22.65039062 C-8.84238127 22.25954154 -8.84238127 22.25954154 -7.71386719 19.97460938 C-7.41125977 19.10642578 -7.10865234 18.23824219 -6.796875 17.34375 C-6.28640625 15.93416016 -6.28640625 15.93416016 -5.765625 14.49609375 C-5.43046875 13.50738281 -5.0953125 12.51867187 -4.75 11.5 C-4.05899844 9.55147722 -3.36637735 7.60352776 -2.671875 5.65625 C-2.3737793 4.78806641 -2.07568359 3.91988281 -1.76855469 3.02539062 C-1 1 -1 1 0 0 Z M16 20 C13.70351351 22.5614657 13 23.47967572 13 27 C16.27773504 26.24849977 16.27773504 26.24849977 18 23 C18 22.01 18 21.02 18 20 C17.34 20 16.68 20 16 20 Z M-12 25 C-14.26212435 27.26513223 -14.26212435 27.26513223 -16 30 C-15.67 30.99 -15.34 31.98 -15 33 C-12.74754119 30.31158141 -11.11786042 28.35358125 -10 25 C-10.66 25 -11.32 25 -12 25 Z M15 33 C12.54058769 35.12375386 10.08265758 37.24921589 7.625 39.375 C6.92632812 39.97828125 6.22765625 40.5815625 5.5078125 41.203125 C4.8375 41.78320312 4.1671875 42.36328125 3.4765625 42.9609375 C2.85861816 43.49509277 2.24067383 44.02924805 1.60400391 44.57958984 C0.3640584 45.6776116 -0.82886452 46.82886452 -2 48 C-2 49.32 -2 50.64 -2 52 C0.90295805 53.45147903 2.77261779 53.37239025 6 53 C12.03744325 49.61903178 13.38756441 45.17715038 15.43359375 38.7421875 C16.25418913 35.92657966 16.25418913 35.92657966 15 33 Z " fill="#313131" transform="translate(192,257)"/>
<path d="M0 0 C0.99 0.33 1.98 0.66 3 1 C1.0417855 8.99547615 -1.05308453 16.9401477 -3.28515625 24.86328125 C-3.58691269 25.93950241 -3.88866913 27.01572357 -4.1995697 28.1245575 C-5.15229949 31.52098425 -6.10737615 34.91674582 -7.0625 38.3125 C-7.70653163 40.60737939 -8.35041308 42.90230092 -8.99414062 45.19726562 C-13.66998058 61.85919167 -13.66998058 61.85919167 -15.13232422 66.95117188 C-20.81167713 84.84013326 -20.81167713 84.84013326 -20 103 C-21.65 102.67 -23.3 102.34 -25 102 C-25.61665369 91.1914312 -24.94843831 78.89687662 -20 69 C-20.66 69 -21.32 69 -22 69 C-22 68.34 -22 67.68 -22 67 C-21.01 66.505 -21.01 66.505 -20 66 C-19.05807873 63.58872723 -19.05807873 63.58872723 -18.2734375 60.65234375 C-17.9640625 59.57275391 -17.6546875 58.49316406 -17.3359375 57.38085938 C-17.01882813 56.24455078 -16.70171875 55.10824219 -16.375 53.9375 C-16.05015625 52.79732422 -15.7253125 51.65714844 -15.390625 50.48242188 C-14.58670077 47.65686466 -13.79018009 44.82942584 -13 42 C-13.99 41.67 -14.98 41.34 -16 41 C-15.55729961 33.74814607 -12.5055448 27.58832297 -9.625 21 C-8.8825 19.27523437 -8.8825 19.27523437 -8.125 17.515625 C-7.17381913 15.30807155 -6.21861891 13.10224419 -5.25878906 10.8984375 C-4.22665972 8.52189764 -3.21401497 6.13886008 -2.2109375 3.75 C-1 1 -1 1 0 0 Z " fill="#646464" transform="translate(338,183)"/>
<path d="M0 0 C0.33 0 0.66 0 1 0 C0.68530021 5.9942818 -1.09849506 9.01304664 -5.375 13 C-5.91229736 13.51618896 -6.44959473 14.03237793 -7.00317383 14.56420898 C-18.58572605 25.39599305 -30.8558056 30.36159904 -46.640625 30.21875 C-54.84072922 29.68478973 -61.92721824 27.07278176 -67.8125 21.1875 C-70.22604397 16.74149796 -70.26629335 13.01524341 -69 8.1875 C-68.67 7.135625 -68.34 6.08375 -68 5 C-68.33 4.34 -68.66 3.68 -69 3 C-66.525 3.99 -66.525 3.99 -64 5 C-64.10699219 5.66386719 -64.21398437 6.32773437 -64.32421875 7.01171875 C-65.10979291 12.52664901 -65.10979291 12.52664901 -63.9375 17.875 C-59.15747815 23.11760462 -53.52102891 25.6601476 -46.51953125 26.3359375 C-31.96128738 26.48934365 -21.97227923 22.36256668 -11.29296875 12.5 C-7.92907356 9.19028175 -4.70958559 5.89382887 -1.7734375 2.1953125 C-1.18820312 1.47085937 -0.60296875 0.74640625 0 0 Z " fill="#686868" transform="translate(290,280)"/>
<path d="M0 0 C3.24976804 -0.37140206 4.73393244 -0.16223632 7.5625 1.5625 C14.31335417 8.31335417 16.20825469 16.61650693 16.37988281 25.90063477 C16.37827148 26.71717529 16.37666016 27.53371582 16.375 28.375 C16.37338867 29.23988037 16.37177734 30.10476074 16.37011719 30.99584961 C16.13177447 43.82079069 12.89540496 56.1781178 8 68 C6.4609375 66.7421875 6.4609375 66.7421875 5 65 C5.50323588 61.87993755 6.16917382 59.03621293 7 56 C10.51179541 41.70575739 14.87143476 23.57680894 6.875 9.9375 C6.25625 8.968125 5.6375 7.99875 5 7 C5 6.34 5 5.68 5 5 C4.360625 4.731875 3.72125 4.46375 3.0625 4.1875 C1 3 1 3 0 0 Z " fill="#414141" transform="translate(140,224)"/>
<path d="M0 0 C0 0.33 0 0.66 0 1 C-0.94746094 1.20979492 -0.94746094 1.20979492 -1.9140625 1.42382812 C-38.36942333 9.24100869 -38.36942333 9.24100869 -70 28 C-70 27.34 -70 26.68 -70 26 C-70.99 25.67 -71.98 25.34 -73 25 C-72.34 25 -71.68 25 -71 25 C-70.67 23.68 -70.34 22.36 -70 21 C-73.27773504 21.75150023 -73.27773504 21.75150023 -75 25 C-75.33 24.34 -75.66 23.68 -76 23 C-76.99 22.67 -77.98 22.34 -79 22 C-78.34 22 -77.68 22 -77 22 C-76.835 21.360625 -76.67 20.72125 -76.5 20.0625 C-75 18 -75 18 -73.15625 17.44140625 C-71.04460329 17.13154505 -69.13240826 16.86672448 -67 17 C-66.34 17.66 -65.68 18.32 -65 19 C-63.49373047 18.22076172 -63.49373047 18.22076172 -61.95703125 17.42578125 C-60.57569291 16.72101679 -59.19417238 16.01660935 -57.8125 15.3125 C-57.15830078 14.97283203 -56.50410156 14.63316406 -55.83007812 14.28320312 C-45.09917758 8.84146683 -33.86905746 5.15148156 -22.25 2.125 C-20.51943359 1.64546875 -20.51943359 1.64546875 -18.75390625 1.15625 C-12.03119957 -0.60683157 -6.84905776 -1.29694924 0 0 Z " fill="#6F6F6F" transform="translate(299,256)"/>
<path d="M0 0 C0.99 0.33 1.98 0.66 3 1 C1.66539723 15.2297512 -9.07089774 27.23800384 -19.57421875 36.1953125 C-27.55609213 42.18485014 -35.02294622 44.6998086 -44.96875 43.51953125 C-47 43 -47 43 -49 41 C-48.01 40.505 -48.01 40.505 -47 40 C-46.67 39.34 -46.34 38.68 -46 38 C-45.42507812 38.33 -44.85015625 38.66 -44.2578125 39 C-40.39214463 40.71212972 -37.00982025 40.07137385 -33 39 C-29.41952277 37.32438032 -26.22775719 35.27397919 -23 33 C-22.38253906 32.57976562 -21.76507813 32.15953125 -21.12890625 31.7265625 C-11.06324111 24.05527036 -5.22172981 11.19901537 0 0 Z " fill="#4D4D4D" transform="translate(144,289)"/>
<path d="M0 0 C0.99 0 1.98 0 3 0 C2.39916639 4.07231667 1.06294995 7.10234153 -0.9375 10.6875 C-1.46214844 11.64011719 -1.98679687 12.59273437 -2.52734375 13.57421875 C-4 16 -4 16 -6 18 C-8 17.66666667 -10 17.33333333 -12 17 C-12.66 17.66 -13.32 18.32 -14 19 C-14.721875 18.814375 -15.44375 18.62875 -16.1875 18.4375 C-19.19107508 17.71557984 -19.19107508 17.71557984 -22.5 19.5 C-26.11054469 21.0473763 -27.38017995 21.27758355 -31 20 C-32 19 -32 19 -32.0625 16.4375 C-32.041875 15.633125 -32.02125 14.82875 -32 14 C-30.68 13.34 -29.36 12.68 -28 12 C-28 12.66 -28 13.32 -28 14 C-27.34 14 -26.68 14 -26 14 C-26 14.66 -26 15.32 -26 16 C-26.66 16.33 -27.32 16.66 -28 17 C-24.535 16.505 -24.535 16.505 -21 16 C-20.67 14.35 -20.34 12.7 -20 11 C-19.34 11 -18.68 11 -18 11 C-17.67 9.35 -17.34 7.7 -17 6 C-16.01 6.33 -15.02 6.66 -14 7 C-14 8.65 -14 10.3 -14 12 C-13.401875 11.01 -12.80375 10.02 -12.1875 9 C-11.465625 8.01 -10.74375 7.02 -10 6 C-9.01 6 -8.02 6 -7 6 C-6.67 7.65 -6.34 9.3 -6 11 C-4.02 7.37 -2.04 3.74 0 0 Z " fill="#3D3D3D" transform="translate(404,240)"/>
<path d="M0 0 C2.89568485 5.71736805 3.08060071 8.49222989 1.5625 14.875 C-0.7755714 25.60935144 -1.65126017 36.73986728 3 47 C5.0115195 49.80804265 5.0115195 49.80804265 7 52 C7.75 54.3125 7.75 54.3125 8 56 C4.33754868 55.79071707 3.07436933 55.07082794 0.375 52.5 C-4.32751775 46.31199344 -5.55891709 38.84784944 -5.5 31.25 C-5.49935547 30.45231201 -5.49871094 29.65462402 -5.49804688 28.83276367 C-5.26068026 18.93706451 -2.67523815 9.47859645 0 0 Z " fill="#3B3B3B" transform="translate(90,274)"/>
<path d="M0 0 C0.99 0.33 1.98 0.66 3 1 C0.378868 12.1053224 -2.82647959 23.04280871 -6 34 C-6.78761719 34.09152344 -7.57523437 34.18304688 -8.38671875 34.27734375 C-9.24910156 34.51582031 -10.11148437 34.75429687 -11 35 C-12.86983745 38.47307328 -12.86983745 38.47307328 -14 42 C-14.66 41.67 -15.32 41.34 -16 41 C-15.55729961 33.74814607 -12.5055448 27.58832297 -9.625 21 C-8.8825 19.27523437 -8.8825 19.27523437 -8.125 17.515625 C-7.17381913 15.30807155 -6.21861891 13.10224419 -5.25878906 10.8984375 C-4.22665972 8.52189764 -3.21401497 6.13886008 -2.2109375 3.75 C-1 1 -1 1 0 0 Z " fill="#3D3D3D" transform="translate(338,183)"/>
<path d="M0 0 C0.99 0.33 1.98 0.66 3 1 C-1.35622499 5.44366746 -5.97093673 9.51890099 -10.671875 13.59765625 C-12.89105006 15.88757683 -13.68443017 16.89450603 -14 20 C-8.3555613 20.42661826 -8.3555613 20.42661826 -3.1875 18.5 C-0.70906083 15.6674981 0.16297608 13.29762685 1.12890625 9.70703125 C2 8 2 8 4.08984375 7.26171875 C5.03537109 7.13216797 5.03537109 7.13216797 6 7 C5.29862313 12.89156572 3.92027596 17.26706804 -0.5625 21.3125 C-3.79367256 23.54946562 -5.49296145 24.15525715 -9.375 24.1875 C-10.53128906 24.20876953 -10.53128906 24.20876953 -11.7109375 24.23046875 C-14.21834888 23.97801607 -15.83261902 23.25193467 -18 22 C-17.90570622 17.37960488 -17.337925 14.89943533 -14.0625 11.5625 C-12.7296768 10.35109341 -11.37286813 9.16582877 -10 8 C-8.72189453 6.88431641 -8.72189453 6.88431641 -7.41796875 5.74609375 C-2.34773549 1.47759576 -2.34773549 1.47759576 0 0 Z " fill="#5D5D5D" transform="translate(204,289)"/>
<path d="M0 0 C1.66289062 -0.00773438 1.66289062 -0.00773438 3.359375 -0.015625 C6.25 0.25 6.25 0.25 9.25 2.25 C8.26 2.25 7.27 2.25 6.25 2.25 C6.25 2.91 6.25 3.57 6.25 4.25 C5.42757812 4.20359375 4.60515625 4.1571875 3.7578125 4.109375 C-8.54125208 3.71171471 -16.6937203 6.93830926 -25.75 15.25 C-27.43365764 17.03821026 -29.02092159 18.85510751 -30.55859375 20.76953125 C-31.75 22.25 -31.75 22.25 -33.75 24.25 C-34.08 23.59 -34.41 22.93 -34.75 22.25 C-36.07 23.24 -37.39 24.23 -38.75 25.25 C-35.09399737 14.74831896 -26.46904633 8.9834406 -17.1796875 3.84375 C-11.42356756 1.16892433 -6.34249144 -0.02977696 0 0 Z " fill="#5F5F5F" transform="translate(133.75,221.75)"/>
<path d="M0 0 C2.475 0.99 2.475 0.99 5 2 C4.89300781 2.66386719 4.78601563 3.32773437 4.67578125 4.01171875 C3.89020709 9.52664901 3.89020709 9.52664901 5.0625 14.875 C12.67031613 23.2190564 22.33425708 24.48448909 33 25 C32.67 25.66 32.34 26.32 32 27 C21.21458834 27.45643592 11.71620898 27.01548528 3 20 C-0.29974175 16.70025825 -0.76592013 13.60357075 -1 9 C-0.38431458 6.65269935 0.27359045 4.31543043 1 2 C0.67 1.34 0.34 0.68 0 0 Z " fill="#626262" transform="translate(221,283)"/>
<path d="M0 0 C1.32 0.33 2.64 0.66 4 1 C3.16016773 8.19649373 1.67938212 13.25620055 -4 18 C-9.97303469 21.70328151 -16.09648451 21.71811881 -23 21 C-27.2117209 19.47506657 -28.51986208 18.72020689 -31 15 C-30.34 15 -29.68 15 -29 15 C-28.34 14.34 -27.68 13.68 -27 13 C-26.13375 13.639375 -25.2675 14.27875 -24.375 14.9375 C-20.40248508 17.36514801 -17.63858282 18.57782918 -12.984375 17.55859375 C-8.31026167 16.0438348 -5.5119328 14.37262377 -3 10 C-1.83281074 6.70559568 -0.86755304 3.38477132 0 0 Z " fill="#535353" transform="translate(128,258)"/>
<path d="M0 0 C0.99 0.33 1.98 0.66 3 1 C5.00875442 0.72428861 7.01178687 0.39764263 9 0 C9.33 1.65 9.66 3.3 10 5 C10.969375 4.175 11.93875 3.35 12.9375 2.5 C16 0 16 0 17 0 C17 2.31 17 4.62 17 7 C17.66 7 18.32 7 19 7 C19 7.66 19 8.32 19 9 C17.63875 8.690625 17.63875 8.690625 16.25 8.375 C12.73659735 7.96960739 11.97166306 8.41511304 9 10 C6.8125 9.8125 6.8125 9.8125 5 9 C4.67 8.01 4.34 7.02 4 6 C3.59007812 6.433125 3.18015625 6.86625 2.7578125 7.3125 C2.21898437 7.869375 1.68015625 8.42625 1.125 9 C0.59132813 9.556875 0.05765625 10.11375 -0.4921875 10.6875 C-2 12 -2 12 -4 12 C-3.28571429 3.42857143 -3.28571429 3.42857143 0 0 Z " fill="#4E4E4E" transform="translate(327,257)"/>
<path d="M0 0 C0 0.66 0 1.32 0 2 C-1.51980469 2.77923828 -1.51980469 2.77923828 -3.0703125 3.57421875 C-4.4220751 4.27826177 -5.77362641 4.98271059 -7.125 5.6875 C-7.79015625 6.02716797 -8.4553125 6.36683594 -9.140625 6.71679688 C-13.58958704 9.05032108 -17.24445546 11.65978827 -21 15 C-21 14.34 -21 13.68 -21 13 C-21.99 12.67 -22.98 12.34 -24 12 C-23.34 12 -22.68 12 -22 12 C-21.67 10.68 -21.34 9.36 -21 8 C-24.27773504 8.75150023 -24.27773504 8.75150023 -26 12 C-26.33 11.34 -26.66 10.68 -27 10 C-27.99 9.67 -28.98 9.34 -30 9 C-29.34 9 -28.68 9 -28 9 C-27.7525 8.0409375 -27.7525 8.0409375 -27.5 7.0625 C-26 5 -26 5 -24.15625 4.44140625 C-22.04460329 4.13154505 -20.13240826 3.86672448 -18 4 C-17.34 4.66 -16.68 5.32 -16 6 C-15.26394531 5.566875 -14.52789062 5.13375 -13.76953125 4.6875 C-12.79371094 4.130625 -11.81789062 3.57375 -10.8125 3 C-9.36810547 2.1646875 -9.36810547 2.1646875 -7.89453125 1.3125 C-4.95111257 -0.02216758 -3.18119943 -0.27915461 0 0 Z " fill="#4A4A4A" transform="translate(250,269)"/>
<path d="M0 0 C1.32 0.66 2.64 1.32 4 2 C2.31205041 11.51389771 -0.3511204 20.71881118 -3 30 C-3.66 29.34 -4.32 28.68 -5 28 C-5.66 29.98 -6.32 31.96 -7 34 C-7.66 33.67 -8.32 33.34 -9 33 C-8.823479 32.40050537 -8.64695801 31.80101074 -8.46508789 31.18334961 C-7.65924394 28.43616635 -6.86082421 25.68687744 -6.0625 22.9375 C-5.78470703 21.99455078 -5.50691406 21.05160156 -5.22070312 20.08007812 C-3.76280762 15.03892136 -2.65035453 10.20283626 -2 5 C-0.9375 2.0625 -0.9375 2.0625 0 0 Z " fill="#4A4A4A" transform="translate(327,216)"/>
<path d="M0 0 C-0.72690229 3.89352261 -2.5349241 5.73741597 -5.16796875 8.65234375 C-9.08095791 13.66664329 -11.95658941 19.43071311 -15 25 C-15.66 24.34 -16.32 23.68 -17 23 C-17.66 23.33 -18.32 23.66 -19 24 C-16.67618262 16.28039203 -9.47322862 0 0 0 Z " fill="#5D5D5D" transform="translate(118,232)"/>
<path d="M0 0 C0.33 0.66 0.66 1.32 1 2 C0.18310547 3.78417969 0.18310547 3.78417969 -1.1328125 5.921875 C-1.60976563 6.70046875 -2.08671875 7.4790625 -2.578125 8.28125 C-3.08859375 9.0959375 -3.5990625 9.910625 -4.125 10.75 C-4.61226563 11.54921875 -5.09953125 12.3484375 -5.6015625 13.171875 C-8.43876524 17.7596922 -11.3740993 21.99989603 -15 26 C-15.33 26 -15.66 26 -16 26 C-16.35357288 21.2094341 -15.75091033 18.96545614 -12.8125 15.1875 C-9.80657877 11.18768546 -7.41354489 7.21566198 -5.23828125 2.71484375 C-4 1 -4 1 -1.85546875 0.25390625 C-1.24316406 0.17011719 -0.63085938 0.08632813 0 0 Z " fill="#606060" transform="translate(307,258)"/>
<path d="M0 0 C0.66 0.33 1.32 0.66 2 1 C1.08915127 3.93440996 0.46523022 5.63946934 -1.99609375 7.546875 C-9.44123416 11.21584019 -16.47946986 13.14928732 -24.6875 11.0625 C-25.450625 10.711875 -26.21375 10.36125 -27 10 C-26.01 8.68 -25.02 7.36 -24 6 C-23.42507812 6.33 -22.85015625 6.66 -22.2578125 7 C-18.40004221 8.70863182 -14.99887526 8.08947685 -11 7 C-7.1887068 5.11045746 -3.03735827 3.03735827 0 0 Z " fill="#5B5B5B" transform="translate(122,321)"/>
<path d="M0 0 C0.495 0.99 0.495 0.99 1 2 C0.34 2.66 -0.32 3.32 -1 4 C-1 3.34 -1 2.68 -1 2 C-2.670625 2.4021875 -2.670625 2.4021875 -4.375 2.8125 C-9.33053728 3.90668263 -14.31393985 4.8156814 -19.3125 5.6875 C-20.10124512 5.83098877 -20.88999023 5.97447754 -21.70263672 6.12231445 C-22.45689941 6.25081787 -23.21116211 6.37932129 -23.98828125 6.51171875 C-24.66415283 6.62990967 -25.34002441 6.74810059 -26.03637695 6.86987305 C-28.22783772 7.01509853 -29.90858719 6.63428333 -32 6 C-31.67 4.68 -31.34 3.36 -31 2 C-31 2.66 -31 3.32 -31 4 C-30.27409668 3.87882813 -29.54819336 3.75765625 -28.80029297 3.6328125 C-25.4926661 3.08356582 -22.18386799 2.54171733 -18.875 2 C-17.16183594 1.71382812 -17.16183594 1.71382812 -15.4140625 1.421875 C-14.30546875 1.24140625 -13.196875 1.0609375 -12.0546875 0.875 C-11.03874512 0.70742187 -10.02280273 0.53984375 -8.97607422 0.3671875 C-5.9524414 -0.00586777 -3.04327403 -0.0634842 0 0 Z " fill="#767676" transform="translate(354,245)"/>
<path d="M0 0 C-0.33 0.33 -0.66 0.66 -1 1 C-1.36760731 3.32817964 -1.70241581 5.6618385 -2 8 C-0.68 8.33 0.64 8.66 2 9 C0.35 9 -1.3 9 -3 9 C-3.33 7.68 -3.66 6.36 -4 5 C-4.7425 5.99 -5.485 6.98 -6.25 8 C-7.515625 9.6875 -7.515625 9.6875 -9 11 C-10.32 11 -11.64 11 -13 11 C-12.57781184 9.3501725 -12.13675575 7.70516335 -11.6875 6.0625 C-11.44386719 5.14597656 -11.20023438 4.22945313 -10.94921875 3.28515625 C-10.47935547 2.15400391 -10.47935547 2.15400391 -10 1 C-2.8 -1.4 -2.8 -1.4 0 0 Z " fill="#444444" transform="translate(167,285)"/>
<path d="M0 0 C0.99 0.33 1.98 0.66 3 1 C2.67 2.98 2.34 4.96 2 7 C3.65 6.01 5.3 5.02 7 4 C7 4.66 7 5.32 7 6 C7.66 6 8.32 6 9 6 C7.54277272 8.91445456 5.94755732 9.65437601 3 11 C-0.601001 10.7516551 -3.58205152 10.13931616 -7 9 C-6.67 7.68 -6.34 6.36 -6 5 C-5.67 5.66 -5.34 6.32 -5 7 C-2.65941363 4.87219421 -1.29299694 2.88437779 0 0 Z " fill="#414141" transform="translate(194,279)"/>
<path d="M0 0 C0.99 0.33 1.98 0.66 3 1 C5.00875442 0.72428861 7.01178687 0.39764263 9 0 C8.505 0.37125 8.01 0.7425 7.5 1.125 C5.40244486 3.74694393 5.78256165 5.73842472 6 9 C5.34 8.01 4.68 7.02 4 6 C3.59007812 6.433125 3.18015625 6.86625 2.7578125 7.3125 C2.21898437 7.869375 1.68015625 8.42625 1.125 9 C0.59132813 9.556875 0.05765625 10.11375 -0.4921875 10.6875 C-2 12 -2 12 -4 12 C-3.28571429 3.42857143 -3.28571429 3.42857143 0 0 Z " fill="#434343" transform="translate(327,257)"/>
<path d="M0 0 C1.0828125 0.3403125 1.0828125 0.3403125 2.1875 0.6875 C2.5175 1.6775 2.8475 2.6675 3.1875 3.6875 C2.1975 5.1725 2.1975 5.1725 1.1875 6.6875 C0.23875 6.5225 -0.71 6.3575 -1.6875 6.1875 C-5.45789803 5.58423631 -8.09683805 5.90525538 -11.8125 6.6875 C-11.8125 6.0275 -11.8125 5.3675 -11.8125 4.6875 C-12.4725 4.6875 -13.1325 4.6875 -13.8125 4.6875 C-13.1525 3.3675 -12.4925 2.0475 -11.8125 0.6875 C-10.9771875 1.2753125 -10.9771875 1.2753125 -10.125 1.875 C-9.361875 2.143125 -8.59875 2.41125 -7.8125 2.6875 C-2.73932927 -0.30436992 -2.73932927 -0.30436992 0 0 Z " fill="#6B6B6B" transform="translate(380.8125,248.3125)"/>
<path d="M0 0 C0.99 0.33 1.98 0.66 3 1 C-1.34088152 5.4199504 -5.9187357 9.50914678 -10.57421875 13.59765625 C-12.72014579 15.7228497 -13.90557901 17.22874685 -15 20 C-15.66 18.35 -16.32 16.7 -17 15 C-11.85646106 9.54989251 -6.36336944 4.00491783 0 0 Z " fill="#777777" transform="translate(204,289)"/>
<path d="M0 0 C0.7578125 1.68359375 0.7578125 1.68359375 1 4 C-0.6953125 6.47265625 -0.6953125 6.47265625 -3.125 9.0625 C-3.91132813 9.91972656 -4.69765625 10.77695312 -5.5078125 11.66015625 C-7.88039565 13.88770688 -10.14935435 15.45294142 -13 17 C-13 12.90002671 -11.34864645 11.61837574 -8.75 8.5 C-7.96109375 7.5409375 -7.1721875 6.581875 -6.359375 5.59375 C-4.34562879 3.37996277 -2.46392921 1.67275928 0 0 Z " fill="#4B4B4B" transform="translate(136,308)"/>
<path d="M0 0 C-0.33 2.97 -0.66 5.94 -1 9 C-3 7.625 -3 7.625 -5 6 C-5 5.34 -5 4.68 -5 4 C-7.52588702 6.36292656 -8.88820837 7.66462511 -10 11 C-9.34 11.33 -8.68 11.66 -8 12 C-8.99 12 -9.98 12 -11 12 C-11.66 10.02 -12.32 8.04 -13 6 C-8.74265389 1.25610005 -6.2657479 0 0 0 Z " fill="#525252" transform="translate(215,273)"/>
<path d="M0 0 C0.99 0.99 1.98 1.98 3 3 C1.36041242 8.23272633 -0.38952035 13.15196636 -3 18 C-4.32 17.67 -5.64 17.34 -7 17 C-5.24009216 11.08030998 -2.60305395 5.58365008 0 0 Z " fill="#4E4E4E" transform="translate(321,222)"/>
<path d="M0 0 C1.06546953 3.1964086 1.07427838 5.65747276 1 9 C0.360625 8.814375 -0.27875 8.62875 -0.9375 8.4375 C-1.9584375 8.2209375 -1.9584375 8.2209375 -3 8 C-3.33 8.33 -3.66 8.66 -4 9 C-5.99958364 9.04080783 -8.00045254 9.04254356 -10 9 C-10 6.69 -10 4.38 -10 2 C-9.01 1.67 -8.02 1.34 -7 1 C-7 2.65 -7 4.3 -7 6 C-4.69 4.02 -2.38 2.04 0 0 Z " fill="#1D1D1D" transform="translate(175,284)"/>
<path d="M0 0 C3.36126028 1.05039384 4.26452805 1.94863165 6 4.9375 C5.34 4.9375 4.68 4.9375 4 4.9375 C3.7525 5.72125 3.505 6.505 3.25 7.3125 C1.84610901 10.26067108 0.99324263 10.8399777 -2 11.9375 C-2.66 11.2775 -3.32 10.6175 -4 9.9375 C-3.34 9.15375 -2.68 8.37 -2 7.5625 C0.20201441 5.22237188 0.20201441 5.22237188 0 2.9375 C-0.66 2.9375 -1.32 2.9375 -2 2.9375 C-2.66 4.2575 -3.32 5.5775 -4 6.9375 C-4.66 5.6175 -5.32 4.2975 -6 2.9375 C-4.06996773 0.25689963 -3.3864475 -0.07055099 0 0 Z " fill="#676767" transform="translate(348,253.0625)"/>
<path d="M0 0 C2.47640141 4.62261596 3.35097471 7.59610116 2.0625 12.75 C1.86785156 13.54921875 1.67320313 14.3484375 1.47265625 15.171875 C1.23869141 16.07679688 1.23869141 16.07679688 1 17 C0.01 17 -0.98 17 -2 17 C-2.66 17.66 -3.32 18.32 -4 19 C-3.37968409 12.42465139 -1.85102717 6.33307408 0 0 Z " fill="#3F3F3F" transform="translate(90,274)"/>
<path d="M0 0 C-4.88919434 4.464047 -10.62041206 6.16343588 -17.14453125 5.96484375 C-21.10777795 5.75218173 -25.05182875 5.4020837 -29 5 C-29 4.67 -29 4.34 -29 4 C-28.18917969 3.97421875 -27.37835938 3.9484375 -26.54296875 3.921875 C-19.5502901 3.56369356 -13.85516446 2.57926478 -7.4375 -0.2578125 C-4.57180117 -1.13038105 -2.85017869 -0.80415756 0 0 Z " fill="#7D7D7D" transform="translate(271,303)"/>
<path d="M0 0 C0 0.66 0 1.32 0 2 C-2.20268339 2.87202123 -4.41013866 3.72245702 -6.625 4.5625 C-8.46964844 5.27599609 -8.46964844 5.27599609 -10.3515625 6.00390625 C-14.11106921 7.03032403 -16.26920564 6.95852717 -20 6 C-16.91409445 3.94272963 -14.0065132 2.67681397 -10.5625 1.3125 C-9.42941406 0.85488281 -8.29632813 0.39726562 -7.12890625 -0.07421875 C-4.09890216 -0.97073681 -2.86729887 -1.16241846 0 0 Z " fill="#646464" transform="translate(267,263)"/>
<path d="M0 0 C0.99 0.33 1.98 0.66 3 1 C4.25801581 3.64973378 4.01187776 4.95726396 3.22265625 7.796875 C2.83980469 8.77140625 2.45695313 9.7459375 2.0625 10.75 C1.68222656 11.73484375 1.30195313 12.7196875 0.91015625 13.734375 C0.60980469 14.48203125 0.30945313 15.2296875 0 16 C-1.546875 14.77734375 -1.546875 14.77734375 -3 13 C-2.890625 10.87890625 -2.890625 10.87890625 -2.25 8.5625 C-2.04890625 7.80066406 -1.8478125 7.03882813 -1.640625 6.25390625 C-1.42921875 5.51011719 -1.2178125 4.76632812 -1 4 C-0.66291666 2.66760978 -0.32832387 1.33457571 0 0 Z " fill="#4B4B4B" transform="translate(148,276)"/>
<path d="M0 0 C0 0.66 0 1.32 0 2 C-7.92 5.96 -7.92 5.96 -16 10 C-16 8.68 -16 7.36 -16 6 C-14.27843904 4.98696238 -12.54738194 3.99005152 -10.8125 3 C-9.84957031 2.443125 -8.88664063 1.88625 -7.89453125 1.3125 C-4.95111257 -0.02216758 -3.18119943 -0.27915461 0 0 Z " fill="#686868" transform="translate(250,269)"/>
<path d="M0 0 C1.32 0.33 2.64 0.66 4 1 C2.66958425 10.17286652 2.66958425 10.17286652 -0.125 13.625 C-0.74375 14.07875 -1.3625 14.5325 -2 15 C-3.08056059 11.02840314 -2.85815614 8.57446843 -1.5625 4.6875 C-1.27503906 3.80449219 -0.98757812 2.92148437 -0.69140625 2.01171875 C-0.46324219 1.34785156 -0.23507813 0.68398438 0 0 Z " fill="#626262" transform="translate(128,258)"/>
<path d="M0 0 C0.7421875 1.640625 0.7421875 1.640625 1 4 C-0.6171875 6.796875 -0.6171875 6.796875 -2.875 9.75 C-3.61492187 10.73484375 -4.35484375 11.7196875 -5.1171875 12.734375 C-5.73851562 13.48203125 -6.35984375 14.2296875 -7 15 C-7.33 15 -7.66 15 -8 15 C-8.62263965 9.8943549 -7.33830833 7.45107777 -4.38671875 3.515625 C-3 2 -3 2 0 0 Z " fill="#4F4F4F" transform="translate(299,269)"/>
<path d="M0 0 C0.8125 1.6875 0.8125 1.6875 1 4 C-1.1875 6.5625 -1.1875 6.5625 -4 9 C-5.0209375 9.8971875 -5.0209375 9.8971875 -6.0625 10.8125 C-8 12 -8 12 -12 12 C-10.85067883 8.5520365 -10.01470731 8.03232162 -7.125 6 C-4.51922275 4.15384047 -2.19758885 2.32198068 0 0 Z " fill="#6B6B6B" transform="translate(280,291)"/>
<path d="M0 0 C1.56525952 4.52186085 0.51170404 8.35523701 -0.875 12.8125 C-2 15 -2 15 -5 16 C-4.67 13.69 -4.34 11.38 -4 9 C-4.66 9 -5.32 9 -6 9 C-6 8.34 -6 7.68 -6 7 C-4.68 7 -3.36 7 -2 7 C-1.855625 6.030625 -1.71125 5.06125 -1.5625 4.0625 C-1 1 -1 1 0 0 Z " fill="#282828" transform="translate(322,243)"/>
<path d="M0 0 C2.475 0.99 2.475 0.99 5 2 C4.40049704 5.68266103 3.75241109 9.34543185 3 13 C1.68 13 0.36 13 -1 13 C-0.125 5.375 -0.125 5.375 1 2 C0.67 1.34 0.34 0.68 0 0 Z " fill="#414141" transform="translate(221,283)"/>
<path d="M0 0 C0.33 0.99 0.66 1.98 1 3 C1.66 2.67 2.32 2.34 3 2 C5.54615009 1.76827173 8.07396225 1.58105471 10.625 1.4375 C11.33140625 1.39431641 12.0378125 1.35113281 12.765625 1.30664062 C14.51018537 1.20055249 16.25506697 1.09977111 18 1 C17.67 1.99 17.34 2.98 17 4 C9.08 4.495 9.08 4.495 1 5 C0.67 3.35 0.34 1.7 0 0 Z " fill="#7C7C7C" transform="translate(359,241)"/>
<path d="M0 0 C1.32 0.66 2.64 1.32 4 2 C2.6302836 5.99500618 0.74277578 8.80009492 -2 12 C-2.33 11.34 -2.66 10.68 -3 10 C-3.99 10.66 -4.98 11.32 -6 12 C-4.43358249 7.69235185 -2.31663844 3.93828536 0 0 Z " fill="#626262" transform="translate(139,299)"/>
<path d="M0 0 C0.33 0.99 0.66 1.98 1 3 C1.66 3 2.32 3 3 3 C3.33 2.34 3.66 1.68 4 1 C4 2.65 4 4.3 4 6 C3.4225 6.268125 2.845 6.53625 2.25 6.8125 C-0.06461975 7.93880119 -0.06461975 7.93880119 -2.0625 9.6875 C-2.701875 10.120625 -3.34125 10.55375 -4 11 C-4.99 10.67 -5.98 10.34 -7 10 C-6.34 10 -5.68 10 -5 10 C-5.33 8.02 -5.66 6.04 -6 4 C-5.34 4.66 -4.68 5.32 -4 6 C-2.68 4.02 -1.36 2.04 0 0 Z " fill="#818181" transform="translate(181,283)"/>
<path d="M0 0 C0.33 0.66 0.66 1.32 1 2 C1.53109375 1.83628906 2.0621875 1.67257813 2.609375 1.50390625 C5.53876764 0.88643623 8.25822936 0.90498075 11.25 0.9375 C12.32765625 0.94652344 13.4053125 0.95554688 14.515625 0.96484375 C15.33546875 0.97644531 16.1553125 0.98804688 17 1 C16.67 1.66 16.34 2.32 16 3 C13.29400158 3.47597366 10.66404596 3.84093629 7.9375 4.125 C7.17888672 4.21136719 6.42027344 4.29773438 5.63867188 4.38671875 C3.76003014 4.59939517 1.88011364 4.80075459 0 5 C0 3.35 0 1.7 0 0 Z " fill="#535353" transform="translate(322,247)"/>
<path d="M0 0 C0 0.66 0 1.32 0 2 C-11.52164009 5.44419134 -11.52164009 5.44419134 -17 5 C-16.01 4.67 -15.02 4.34 -14 4 C-14 3.34 -14 2.68 -14 2 C-9.126739 0.4087311 -5.19209404 -0.21192221 0 0 Z " fill="#636363" transform="translate(281,259)"/>
<path d="M0 0 C0.88336837 2.4667645 1.1312406 3.63859372 0.22265625 6.140625 C-0.16019531 6.83671875 -0.54304688 7.5328125 -0.9375 8.25 C-1.31777344 8.95640625 -1.69804688 9.6628125 -2.08984375 10.390625 C-2.39019531 10.92171875 -2.69054687 11.4528125 -3 12 C-3.66 11.34 -4.32 10.68 -5 10 C-5.99 10.495 -5.99 10.495 -7 11 C-5.72278474 6.00724943 -3.82669043 3.42388092 0 0 Z " fill="#4D4D4D" transform="translate(106,245)"/>
<path d="M0 0 C0.33 1.32 0.66 2.64 1 4 C3.97 4.33 6.94 4.66 10 5 C10 5.66 10 6.32 10 7 C8.37509046 7.02698189 6.75005367 7.04638757 5.125 7.0625 C3.76761719 7.07990234 3.76761719 7.07990234 2.3828125 7.09765625 C0 7 0 7 -2 6 C-2 4.35 -2 2.7 -2 1 C-1.34 0.67 -0.68 0.34 0 0 Z " fill="#292929" transform="translate(188,305)"/>
<path d="M0 0 C0.66 1.32 1.32 2.64 2 4 C-1.59258142 6.89158993 -3.17748885 8.05306524 -7.875 7.75 C-8.90625 7.5025 -9.9375 7.255 -11 7 C-10.46375 6.7525 -9.9275 6.505 -9.375 6.25 C-6.10155465 4.52713402 -2.63127385 2.63127385 0 0 Z " fill="#737373" transform="translate(124,270)"/>
<path d="M0 0 C2.30612245 9.2244898 2.30612245 9.2244898 1.0625 12.375 C0.711875 12.91125 0.36125 13.4475 0 14 C-0.33 13.34 -0.66 12.68 -1 12 C-1.66 13.98 -2.32 15.96 -3 18 C-3.66 17.67 -4.32 17.34 -5 17 C-3.35 11.39 -1.7 5.78 0 0 Z " fill="#757575" transform="translate(323,232)"/>
<path d="M0 0 C0.66 0.33 1.32 0.66 2 1 C1.01437243 4.31529273 0.34552581 5.74949379 -2.5 7.8125 C-5 9 -5 9 -7 9 C-7 8.34 -7 7.68 -7 7 C-7.66 6.67 -8.32 6.34 -9 6 C-6.03 4.02 -3.06 2.04 0 0 Z " fill="#6D6D6D" transform="translate(122,321)"/>
<path d="M0 0 C0.33 0 0.66 0 1 0 C1.06058594 0.74765625 1.12117188 1.4953125 1.18359375 2.265625 C1.26738281 3.25046875 1.35117187 4.2353125 1.4375 5.25 C1.51871094 6.22453125 1.59992188 7.1990625 1.68359375 8.203125 C1.95074584 10.56461753 2.35371968 12.71901065 3 15 C1.68 15 0.36 15 -1 15 C-1.02685412 12.68756208 -1.04632841 10.3750373 -1.0625 8.0625 C-1.07410156 6.77472656 -1.08570313 5.48695313 -1.09765625 4.16015625 C-1 1 -1 1 0 0 Z " fill="#1F1F1F" transform="translate(315,271)"/>
<path d="M0 0 C5.61 0.33 11.22 0.66 17 1 C16.67 1.66 16.34 2.32 16 3 C13.89646505 3.0810206 11.79204048 3.13919907 9.6875 3.1875 C8.51574219 3.22230469 7.34398437 3.25710938 6.13671875 3.29296875 C3 3 3 3 0 0 Z " fill="#4B4B4B" transform="translate(237,307)"/>
<path d="M0 0 C0.33 1.32 0.66 2.64 1 4 C2.65 4 4.3 4 6 4 C5.34 5.65 4.68 7.3 4 9 C3.67 8.34 3.34 7.68 3 7 C1.7625 6.566875 1.7625 6.566875 0.5 6.125 C-2 5 -2 5 -2.8125 2.875 C-2.874375 2.25625 -2.93625 1.6375 -3 1 C-2.01 0.67 -1.02 0.34 0 0 Z " fill="#2A2A2A" transform="translate(223,278)"/>
<path d="M0 0 C-2.08439082 3.12658623 -2.8463034 3.4231517 -6 5 C-6.99 6.485 -6.99 6.485 -8 8 C-8.33 7.34 -8.66 6.68 -9 6 C-9.99 5.67 -10.98 5.34 -12 5 C-11.34 5 -10.68 5 -10 5 C-9.731875 4.360625 -9.46375 3.72125 -9.1875 3.0625 C-7.07129989 -0.61300545 -3.8426845 -0.10385634 0 0 Z " fill="#6F6F6F" transform="translate(232,273)"/>
<path d="M0 0 C1.32 0 2.64 0 4 0 C3.34 3.96 2.68 7.92 2 12 C-1 8 -1 8 -1.07421875 5.859375 C-0.53710938 2.9296875 -0.53710938 2.9296875 0 0 Z " fill="#595959" transform="translate(316,258)"/>
<path d="M0 0 C0.99 0 1.98 0 3 0 C2.34 3.63 1.68 7.26 1 11 C0.34 9.68 -0.32 8.36 -1 7 C-1.99 7.495 -1.99 7.495 -3 8 C-1.125 1.125 -1.125 1.125 0 0 Z " fill="#646464" transform="translate(360,230)"/>
<path d="M0 0 C0.99 0 1.98 0 3 0 C3.14285714 7.42857143 3.14285714 7.42857143 2 11 C1.01 10.67 0.02 10.34 -1 10 C-0.67 6.7 -0.34 3.4 0 0 Z " fill="#3D3D3D" transform="translate(324,228)"/>
<path d="M0 0 C-0.33 0.33 -0.66 0.66 -1 1 C-1.36760731 3.32817964 -1.70241581 5.6618385 -2 8 C-0.68 8.33 0.64 8.66 2 9 C0.35 9 -1.3 9 -3 9 C-3.33 6.69 -3.66 4.38 -4 2 C-5.98 2.33 -7.96 2.66 -10 3 C-9.67 2.01 -9.34 1.02 -9 0 C-2.25 -1.125 -2.25 -1.125 0 0 Z " fill="#818181" transform="translate(167,285)"/>
<path d="M0 0 C1.65 0.33 3.3 0.66 5 1 C4.0409375 2.1446875 4.0409375 2.1446875 3.0625 3.3125 C0.85767219 5.88246713 0.85767219 5.88246713 0 9 C0.66 9.33 1.32 9.66 2 10 C1.01 10 0.02 10 -1 10 C-2.1875 7.25 -2.1875 7.25 -3 4 C-1.625 1.625 -1.625 1.625 0 0 Z " fill="#6B6B6B" transform="translate(205,275)"/>
<path d="M0 0 C0.99 0.33 1.98 0.66 3 1 C2.34 3.97 1.68 6.94 1 10 C0.34 9.01 -0.32 8.02 -1 7 C-1.99 7.495 -1.99 7.495 -3 8 C-1.125 1.125 -1.125 1.125 0 0 Z " fill="#696969" transform="translate(192,257)"/>
<path d="M0 0 C1.0326802 2.78823655 1.04509293 3.8677274 0.0625 6.75 C-0.288125 7.4925 -0.63875 8.235 -1 9 C-2.32 9 -3.64 9 -5 9 C-4.5206753 4.68607774 -3.2542015 2.83430453 0 0 Z " fill="#3D3D3D" transform="translate(316,238)"/>
<path d="M0 0 C0.33 0.66 0.66 1.32 1 2 C1.99 1.67 2.98 1.34 4 1 C2.25 6.75 2.25 6.75 0 9 C-0.99 8.67 -1.98 8.34 -3 8 C-1.125 2.25 -1.125 2.25 0 0 Z " fill="#656565" transform="translate(317,231)"/>
<path d="M0 0 C1.32 0 2.64 0 4 0 C3.34 1.98 2.68 3.96 2 6 C2.66 6 3.32 6 4 6 C3.67 6.99 3.34 7.98 3 9 C2.01 9 1.02 9 0 9 C-0.87890625 2.84765625 -0.87890625 2.84765625 -1 1 C-0.67 0.67 -0.34 0.34 0 0 Z " fill="#2C2C2C" transform="translate(333,258)"/>
<path d="M0 0 C0.33 0.66 0.66 1.32 1 2 C1.66 2 2.32 2 3 2 C3 2.66 3 3.32 3 4 C2.01 4.495 2.01 4.495 1 5 C1.99 5.66 2.98 6.32 4 7 C1.69 7 -0.62 7 -3 7 C-3.1875 4.625 -3.1875 4.625 -3 2 C-2.01 1.34 -1.02 0.68 0 0 Z " fill="#3A3A3A" transform="translate(375,252)"/>
<path d="M0 0 C0.99 0.33 1.98 0.66 3 1 C5.00875442 0.72428861 7.01178687 0.39764263 9 0 C8.505 0.37125 8.01 0.7425 7.5 1.125 C5.40244486 3.74694393 5.78256165 5.73842472 6 9 C4.5 7.625 4.5 7.625 3 6 C3 5.34 3 4.68 3 4 C2.34 4 1.68 4 1 4 C1 3.34 1 2.68 1 2 C0.34 1.67 -0.32 1.34 -1 1 C-0.67 0.67 -0.34 0.34 0 0 Z " fill="#8F8F8F" transform="translate(327,257)"/>
<path d="M0 0 C1.4070473 2.6264883 2.62816493 5.02531947 3 8 C2.0625 10.25 2.0625 10.25 1 12 C0.67 11.01 0.34 10.02 0 9 C-0.66 9.66 -1.32 10.32 -2 11 C-1.125 3.375 -1.125 3.375 0 0 Z " fill="#606060" transform="translate(90,274)"/>
<path d="M0 0 C0.99 0 1.98 0 3 0 C2.46930939 3.82097239 1.50298434 6.06171403 -1 9 C-1 8.34 -1 7.68 -1 7 C-1.66 7 -2.32 7 -3 7 C-1.125 2.25 -1.125 2.25 0 0 Z " fill="#676767" transform="translate(404,240)"/>
<path d="M0 0 C0.33 0.99 0.66 1.98 1 3 C-3.56327794 6.53286034 -7.49633208 6.32374517 -13 6 C-13 5.67 -13 5.34 -13 5 C-10.36 5 -7.72 5 -5 5 C-5 4.01 -5 3.02 -5 2 C-3.35 1.34 -1.7 0.68 0 0 Z " fill="#676767" transform="translate(203,307)"/>
<path d="M0 0 C0.99 0.33 1.98 0.66 3 1 C-1.75 5.875 -1.75 5.875 -4 7 C-4 6.34 -4 5.68 -4 5 C-4.66 5 -5.32 5 -6 5 C-4.59240479 2.18480957 -2.77416723 1.38708362 0 0 Z " fill="#797979" transform="translate(218,279)"/>
<path d="M0 0 C1.32 0.33 2.64 0.66 4 1 C3.67 3.31 3.34 5.62 3 8 C2.01 8 1.02 8 0 8 C0 5.36 0 2.72 0 0 Z " fill="#404040" transform="translate(128,258)"/>
<path d="M0 0 C-1.0975223 2.99324263 -1.67682892 3.84610901 -4.625 5.25 C-5.40875 5.4975 -6.1925 5.745 -7 6 C-7 4.68 -7 3.36 -7 2 C-4 0 -4 0 0 0 Z " fill="#606060" transform="translate(241,273)"/>
<path d="M0 0 C0.66 0 1.32 0 2 0 C2 1.32 2 2.64 2 4 C2.66 4 3.32 4 4 4 C3.67 5.98 3.34 7.96 3 10 C2.67 9.01 2.34 8.02 2 7 C1.34 7 0.68 7 0 7 C-1.125 2.25 -1.125 2.25 0 0 Z " fill="#7E7E7E" transform="translate(325,221)"/>
<path d="M0 0 C0.66 0.33 1.32 0.66 2 1 C0.25 5.875 0.25 5.875 -2 7 C-2 6.34 -2 5.68 -2 5 C-3.32 5.33 -4.64 5.66 -6 6 C-4 4 -2 2 0 0 Z " fill="#747474" transform="translate(109,230)"/>
<path d="M0 0 C0.66 0.66 1.32 1.32 2 2 C2.99 1.34 3.98 0.68 5 0 C5.33 1.65 5.66 3.3 6 5 C7.32 5.33 8.64 5.66 10 6 C6.53058454 5.54177532 3.32604951 5.10868317 0 4 C0 2.68 0 1.36 0 0 Z " fill="#7D7D7D" transform="translate(187,284)"/>
<path d="M0 0 C0.99 0 1.98 0 3 0 C2.67 1.98 2.34 3.96 2 6 C1.01 6 0.02 6 -1 6 C-1.33 5.34 -1.66 4.68 -2 4 C-1.0625 1.875 -1.0625 1.875 0 0 Z " fill="#545454" transform="translate(400,247)"/>
<path d="M0 0 C0.99 0.33 1.98 0.66 3 1 C1.35 2.65 -0.3 4.3 -2 6 C-2.99 5.34 -3.98 4.68 -5 4 C-2.6875 1.9375 -2.6875 1.9375 0 0 Z " fill="#7D7D7D" transform="translate(204,289)"/>
<path d="M0 0 C0.33 0 0.66 0 1 0 C1 1.98 1 3.96 1 6 C1.99 6 2.98 6 4 6 C4 6.66 4 7.32 4 8 C2.35 8 0.7 8 -1 8 C-1.04241723 5.66705225 -1.04092937 3.33297433 -1 1 C-0.67 0.67 -0.34 0.34 0 0 Z " fill="#0B0B0B" transform="translate(166,285)"/>
<path d="M0 0 C0 0.66 0 1.32 0 2 C-5.41538462 3.23076923 -5.41538462 3.23076923 -8.375 2.0625 C-8.91125 1.711875 -9.4475 1.36125 -10 1 C-3.71428571 -1.42857143 -3.71428571 -1.42857143 0 0 Z " fill="#848484" transform="translate(267,263)"/>
<path d="M0 0 C2.31 0 4.62 0 7 0 C7 0.66 7 1.32 7 2 C3.7 2.33 0.4 2.66 -3 3 C-2.01 2.67 -1.02 2.34 0 2 C0 1.34 0 0.68 0 0 Z " fill="#4A4A4A" transform="translate(274,259)"/>
<path d="M0 0 C0.66 0.99 1.32 1.98 2 3 C1.01 4.485 1.01 4.485 0 6 C-2.97 5.505 -2.97 5.505 -6 5 C-5 3 -5 3 -2 2 C-2 2.66 -2 3.32 -2 4 C-1.34 4 -0.68 4 0 4 C0 2.68 0 1.36 0 0 Z " fill="#A1A1A1" transform="translate(382,249)"/>
<path d="M0 0 C0.33 0.66 0.66 1.32 1 2 C3.12576782 2.46651207 3.12576782 2.46651207 5.5625 2.625 C6.38878906 2.69976562 7.21507812 2.77453125 8.06640625 2.8515625 C8.70449219 2.90054688 9.34257812 2.94953125 10 3 C10 3.33 10 3.66 10 4 C6.7 4.33 3.4 4.66 0 5 C0 3.35 0 1.7 0 0 Z " fill="#797979" transform="translate(322,247)"/>
<path d="M0 0 C0 1.65 0 3.3 0 5 C-0.66 5 -1.32 5 -2 5 C-2 4.34 -2 3.68 -2 3 C-3.32 3 -4.64 3 -6 3 C-6 2.34 -6 1.68 -6 1 C-4 0 -4 0 0 0 Z " fill="#474747" transform="translate(382,248)"/>
<path d="M0 0 C0.99 0 1.98 0 3 0 C2.67 1.98 2.34 3.96 2 6 C1.34 5.34 0.68 4.68 0 4 C-0.99 4.66 -1.98 5.32 -3 6 C-1.125 1.125 -1.125 1.125 0 0 Z " fill="#656565" transform="translate(106,242)"/>
<path d="M0 0 C0.33 0 0.66 0 1 0 C1 1.65 1 3.3 1 5 C2.65 4.01 4.3 3.02 6 2 C5.625 4.4375 5.625 4.4375 5 7 C4.01 7.495 4.01 7.495 3 8 C3 7.34 3 6.68 3 6 C2.01 6 1.02 6 0 6 C0 4.02 0 2.04 0 0 Z " fill="#878787" transform="translate(167,285)"/>
<path d="M0 0 C2.475 0.99 2.475 0.99 5 2 C4.67 3.98 4.34 5.96 4 8 C3.67 7.01 3.34 6.02 3 5 C2.34 5 1.68 5 1 5 C0.67 3.35 0.34 1.7 0 0 Z " fill="#737373" transform="translate(221,283)"/>
<path d="M0 0 C0.33 0.66 0.66 1.32 1 2 C1.66 2 2.32 2 3 2 C1.60804085 4.7839183 -0.15575779 4.97898997 -3 6 C-3.33 5.01 -3.66 4.02 -4 3 C-2.68 2.01 -1.36 1.02 0 0 Z " fill="#6B6B6B" transform="translate(200,283)"/>
<path d="M0 0 C0.99 0 1.98 0 3 0 C2.67 1.65 2.34 3.3 2 5 C1.01 5.33 0.02 5.66 -1 6 C-0.67 4.02 -0.34 2.04 0 0 Z " fill="#787878" transform="translate(196,272)"/>
<path d="M0 0 C0.99 0.33 1.98 0.66 3 1 C2.25 5.75 2.25 5.75 0 8 C-0.79953138 4.71303767 -1.09658936 3.28976808 0 0 Z " fill="#313131" transform="translate(323,217)"/>
<path d="M0 0 C-1.15173355 2.46800047 -2.04783565 4.04783565 -4 6 C-4.99 5.67 -5.98 5.34 -7 5 C-2.25 0 -2.25 0 0 0 Z " fill="#404040" transform="translate(286,289)"/>
<path d="M0 0 C0.33 0 0.66 0 1 0 C1 2.31 1 4.62 1 7 C0.01 7.495 0.01 7.495 -1 8 C-1.33 6.02 -1.66 4.04 -2 2 C-1.34 2 -0.68 2 0 2 C0 1.34 0 0.68 0 0 Z " fill="#222222" transform="translate(93,272)"/>
<path d="M0 0 C1.32 0.66 2.64 1.32 4 2 C0.21812119 3.83691257 -1.94568308 4.15837626 -6 3 C-6 2.67 -6 2.34 -6 2 C-4.02 2 -2.04 2 0 2 C0 1.34 0 0.68 0 0 Z " fill="#717171" transform="translate(379,257)"/>
<path d="M0 0 C2.475 0.99 2.475 0.99 5 2 C4.67 2.99 4.34 3.98 4 5 C1.03 4.505 1.03 4.505 -2 4 C-1.34 2.68 -0.68 1.36 0 0 Z " fill="#747474" transform="translate(97,327)"/>
<path d="M0 0 C0.99 0 1.98 0 3 0 C2.25 1.9375 2.25 1.9375 1 4 C-1.125 4.75 -1.125 4.75 -3 5 C-1.6875 2.5 -1.6875 2.5 0 0 Z " fill="#656565" transform="translate(198,294)"/>
<path d="M0 0 C1.32 0.66 2.64 1.32 4 2 C2.68 3.32 1.36 4.64 0 6 C-0.66 4.68 -1.32 3.36 -2 2 C-1.34 1.34 -0.68 0.68 0 0 Z " fill="#828282" transform="translate(176,281)"/>
</svg>
